<svg xmlns="http://www.w3.org/2000/svg" width="48" height="48" fill="none" viewBox="0 0 48 48">
  <rect width="48" height="48" fill="#C01639" rx="1"/>
  <rect width="32" height="32" x="8" y="8" fill="#000" rx="1"/>
  <rect width="20" height="4" x="13" y="30" fill="#fff" rx="1"/>
  <path fill="#fff" d="M24.278 16.438H21.79a2.436 2.436 0 0 0-.279-.858c-.14-.254-.32-.47-.54-.648a2.376 2.376 0 0 0-.76-.41 2.912 2.912 0 0 0-.927-.141c-.602 0-1.127.15-1.574.448-.447.296-.793.728-1.04 1.296-.246.564-.369 1.25-.369 2.057 0 .83.123 1.526.37 2.09.25.565.598.991 1.045 1.28.447.287.964.431 1.551.431.33 0 .634-.044.915-.13.284-.088.536-.215.756-.381.22-.17.401-.377.545-.62.148-.242.25-.519.307-.83l2.488.012a4.642 4.642 0 0 1-1.511 2.87 4.84 4.84 0 0 1-1.534.92c-.591.223-1.26.335-2.006.335-1.038 0-1.966-.235-2.784-.704-.814-.47-1.458-1.15-1.932-2.04-.47-.89-.704-1.968-.704-3.233 0-1.27.239-2.349.716-3.239.477-.89 1.125-1.568 1.943-2.034.818-.47 1.738-.705 2.761-.705.674 0 1.3.095 1.875.285.58.189 1.093.465 1.54.83.447.359.81.8 1.091 1.323.284.523.466 1.121.545 1.796Zm8.077-.728c-.045-.458-.24-.814-.585-1.068-.345-.254-.813-.38-1.404-.38-.401 0-.74.056-1.017.17-.276.11-.488.263-.636.46-.144.197-.216.42-.216.67a.958.958 0 0 0 .13.546c.1.155.234.29.404.403.17.11.368.207.591.29.224.08.462.148.716.205l1.046.25a7.37 7.37 0 0 1 1.397.454c.425.19.792.423 1.102.7.311.276.552.601.722.976.174.375.263.805.267 1.29-.004.712-.185 1.33-.545 1.852-.356.52-.871.923-1.546 1.21-.67.285-1.479.427-2.426.427-.94 0-1.758-.144-2.454-.432-.694-.288-1.235-.714-1.625-1.279-.387-.568-.59-1.27-.608-2.107h2.38c.027.39.139.715.336.977.2.257.467.452.8.585a3.18 3.18 0 0 0 1.143.193c.416 0 .778-.06 1.085-.181.31-.122.551-.29.721-.506.171-.216.256-.464.256-.744a.966.966 0 0 0-.233-.66c-.151-.178-.375-.33-.67-.454a6.82 6.82 0 0 0-1.074-.341l-1.267-.318c-.981-.239-1.756-.612-2.324-1.12-.568-.507-.85-1.19-.847-2.05-.003-.705.184-1.32.563-1.847.383-.527.907-.938 1.574-1.233.666-.296 1.424-.444 2.273-.444.863 0 1.617.148 2.26.444.649.295 1.152.706 1.512 1.233.36.526.546 1.136.557 1.83h-2.358Z"/>
</svg>
